solid maze-80cm
facet normal -8.911094084851372e-15 1.0 -0.0
  outer loop
    vertex -2.789999999999999 -0.3900000000000004 0.4
    vertex -1.9900000000000009 -0.38999999999999324 0.0
    vertex -2.789999999999999 -0.3900000000000004 0.0
  endloop
endfacet
facet normal -8.911094084851372e-15 1.0 -0.0
  outer loop
    vertex -1.9900000000000009 -0.38999999999999324 0.0
    vertex -2.789999999999999 -0.3900000000000004 0.4
    vertex -1.9900000000000009 -0.38999999999999324 0.4
  endloop
endfacet
facet normal 0.0 -1.0 0.0
  outer loop
    vertex 0.4 -0.4 0.4
    vertex -2.8 -0.4 0.0
    vertex 0.4 -0.4 0.0
  endloop
endfacet
facet normal 0.0 -1.0 0.0
  outer loop
    vertex -2.8 -0.4 0.0
    vertex 0.4 -0.4 0.4
    vertex -2.8 -0.4 0.4
  endloop
endfacet
facet normal -1.0 -6.767919558114956e-16 0.0
  outer loop
    vertex -2.800000000000002 2.799999999999999 0.4
    vertex -2.8 -0.4 0.0
    vertex -2.8 -0.4 0.4
  endloop
endfacet
facet normal -1.0 -6.767919558114956e-16 0.0
  outer loop
    vertex -2.8 -0.4 0.0
    vertex -2.800000000000002 2.799999999999999 0.4
    vertex -2.800000000000002 2.799999999999999 0.0
  endloop
endfacet
facet normal -9.023892744153269e-16 1.0 -0.0
  outer loop
    vertex -2.800000000000002 2.799999999999999 0.4
    vertex 0.39999999999999925 2.8000000000000016 0.0
    vertex -2.800000000000002 2.799999999999999 0.0
  endloop
endfacet
facet normal -9.023892744153269e-16 1.0 -0.0
  outer loop
    vertex 0.39999999999999925 2.8000000000000016 0.0
    vertex -2.800000000000002 2.799999999999999 0.4
    vertex 0.39999999999999925 2.8000000000000016 0.4
  endloop
endfacet
facet normal 1.0 2.5379698342931064e-16 -0.0
  outer loop
    vertex 0.39999999999999925 2.8000000000000016 0.0
    vertex 0.4 -0.4 0.4
    vertex 0.4 -0.4 0.0
  endloop
endfacet
facet normal 1.0 2.5379698342931064e-16 -0.0
  outer loop
    vertex 0.4 -0.4 0.4
    vertex 0.39999999999999925 2.8000000000000016 0.0
    vertex 0.39999999999999925 2.8000000000000016 0.4
  endloop
endfacet
facet normal -8.912486660892115e-16 -1.0 0.0
  outer loop
    vertex -0.41000000000000325 1.9900000000000027 0.4
    vertex -1.2200000000000037 1.9900000000000033 -1.3281418446251129e-34
    vertex -0.41000000000000325 1.9900000000000027 -1.3281418446251129e-34
  endloop
endfacet
facet normal -8.912486660892115e-16 -1.0 0.0
  outer loop
    vertex -1.2200000000000037 1.9900000000000033 -1.3281418446251129e-34
    vertex -0.41000000000000325 1.9900000000000027 0.4
    vertex -1.2200000000000037 1.9900000000000033 0.4
  endloop
endfacet
facet normal -1.0 0.0 0.0
  outer loop
    vertex -1.2200000000000037 2.000000000000003 0.4
    vertex -1.2200000000000037 1.9900000000000033 -1.3281418446251129e-34
    vertex -1.2200000000000037 1.9900000000000033 0.4
  endloop
endfacet
facet normal -1.0 0.0 0.0
  outer loop
    vertex -1.2200000000000037 1.9900000000000033 -1.3281418446251129e-34
    vertex -1.2200000000000037 2.000000000000003 0.4
    vertex -1.2200000000000037 2.000000000000003 -1.3281418446251129e-34
  endloop
endfacet
facet normal -1.0 -8.967843720897653e-16 0.0
  outer loop
    vertex -1.9900000000000022 1.2200000000000084 0.4
    vertex -1.9900000000000009 -0.38999999999999324 0.0
    vertex -1.9900000000000009 -0.38999999999999324 0.4
  endloop
endfacet
facet normal -1.0 -8.967843720897653e-16 0.0
  outer loop
    vertex -1.9900000000000009 -0.38999999999999324 0.0
    vertex -1.9900000000000022 1.2200000000000084 0.4
    vertex -1.9900000000000022 1.2200000000000084 -1.6269737596657411e-34
  endloop
endfacet
facet normal -4.627637304693981e-15 -1.0 0.0
  outer loop
    vertex -0.42000000000000115 2.790000000000002 0.4
    vertex -1.9800000000000024 2.790000000000009 0.0
    vertex -0.42000000000000115 2.790000000000002 0.0
  endloop
endfacet
facet normal -4.627637304693981e-15 -1.0 0.0
  outer loop
    vertex -1.9800000000000024 2.790000000000009 0.0
    vertex -0.42000000000000115 2.790000000000002 0.4
    vertex -1.9800000000000024 2.790000000000009 0.4
  endloop
endfacet
facet normal -5.458898079796406e-15 -1.0 0.0
  outer loop
    vertex 0.38999999999999924 0.41000000000000025 0.4
    vertex -1.2300000000000058 0.4100000000000091 -1.6269737596657411e-34
    vertex 0.38999999999999924 0.41000000000000025 -1.6269737596657411e-34
  endloop
endfacet
facet normal -5.458898079796406e-15 -1.0 0.0
  outer loop
    vertex -1.2300000000000058 0.4100000000000091 -1.6269737596657411e-34
    vertex 0.38999999999999924 0.41000000000000025 0.4
    vertex -1.2300000000000058 0.4100000000000091 0.4
  endloop
endfacet
facet normal 8.9124866608921e-15 1.0 -0.0
  outer loop
    vertex -0.4200000000000026 1.2200000000000077 0.4
    vertex 0.3899999999999995 1.2200000000000004 -1.6269737596657411e-34
    vertex -0.4200000000000026 1.2200000000000077 -1.6269737596657411e-34
  endloop
endfacet
facet normal 8.9124866608921e-15 1.0 -0.0
  outer loop
    vertex 0.3899999999999995 1.2200000000000004 -1.6269737596657411e-34
    vertex -0.4200000000000026 1.2200000000000077 0.4
    vertex 0.3899999999999995 1.2200000000000004 0.4
  endloop
endfacet
facet normal -1.0 -2.2990809539243973e-16 0.0
  outer loop
    vertex 0.3899999999999992 2.7900000000000027 0.4
    vertex 0.3899999999999995 1.2200000000000004 -1.6269737596657411e-34
    vertex 0.3899999999999995 1.2200000000000004 0.4
  endloop
endfacet
facet normal -1.0 -2.2990809539243973e-16 0.0
  outer loop
    vertex 0.3899999999999995 1.2200000000000004 -1.6269737596657411e-34
    vertex 0.3899999999999992 2.7900000000000027 0.4
    vertex 0.3899999999999992 2.7900000000000027 0.0
  endloop
endfacet
facet normal -1.0 -2.6737459982676118e-15 0.0
  outer loop
    vertex -1.9900000000000022 2.7900000000000094 0.4
    vertex -1.99 1.980000000000002 -1.3281418446251129e-34
    vertex -1.99 1.980000000000002 0.4
  endloop
endfacet
facet normal -1.0 -2.6737459982676118e-15 0.0
  outer loop
    vertex -1.99 1.980000000000002 -1.3281418446251129e-34
    vertex -1.9900000000000022 2.7900000000000094 0.4
    vertex -1.9900000000000022 2.7900000000000094 0.0
  endloop
endfacet
facet normal 2.855662260807998e-15 1.0 -0.0
  outer loop
    vertex -1.9800000000000002 -0.3899999999999931 0.4
    vertex 0.38999999999999924 -0.38999999999999985 0.0
    vertex -1.9800000000000002 -0.3899999999999931 0.0
  endloop
endfacet
facet normal 2.855662260807998e-15 1.0 -0.0
  outer loop
    vertex 0.38999999999999924 -0.38999999999999985 0.0
    vertex -1.9800000000000002 -0.3899999999999931 0.4
    vertex 0.38999999999999924 -0.38999999999999985 0.4
  endloop
endfacet
facet normal 1.0 -3.158362460453645e-15 -0.0
  outer loop
    vertex -0.4100000000000007 2.7900000000000027 0.0
    vertex -0.41000000000000325 1.9900000000000027 0.4
    vertex -0.41000000000000325 1.9900000000000027 -1.3281418446251129e-34
  endloop
endfacet
facet normal 1.0 -3.158362460453645e-15 -0.0
  outer loop
    vertex -0.41000000000000325 1.9900000000000027 0.4
    vertex -0.4100000000000007 2.7900000000000027 0.0
    vertex -0.4100000000000007 2.7900000000000027 0.4
  endloop
endfacet
facet normal -0.0 1.0 -0.0
  outer loop
    vertex -1.9900000000000022 1.2200000000000084 0.4
    vertex -1.220000000000005 1.2200000000000084 -1.6269737596657411e-34
    vertex -1.9900000000000022 1.2200000000000084 -1.6269737596657411e-34
  endloop
endfacet
facet normal -0.0 1.0 -0.0
  outer loop
    vertex -1.220000000000005 1.2200000000000084 -1.6269737596657411e-34
    vertex -1.9900000000000022 1.2200000000000084 0.4
    vertex -1.220000000000005 1.2200000000000084 0.4
  endloop
endfacet
facet normal 1.48894230278529e-14 -1.0 0.0
  outer loop
    vertex -1.9900000000000022 2.7900000000000094 0.4
    vertex -2.7900000000000023 2.7899999999999974 0.0
    vertex -1.9900000000000022 2.7900000000000094 0.0
  endloop
endfacet
facet normal 1.48894230278529e-14 -1.0 0.0
  outer loop
    vertex -2.7900000000000023 2.7899999999999974 0.0
    vertex -1.9900000000000022 2.7900000000000094 0.4
    vertex -2.7900000000000023 2.7899999999999974 0.4
  endloop
endfacet
facet normal -1.0 -6.853589425939195e-16 0.0
  outer loop
    vertex 0.38999999999999896 1.2100000000000006 0.4
    vertex 0.3899999999999995 0.4200000000000006 -1.6269737596657411e-34
    vertex 0.3899999999999995 0.4200000000000006 0.4
  endloop
endfacet
facet normal -1.0 -6.853589425939195e-16 0.0
  outer loop
    vertex 0.3899999999999995 0.4200000000000006 -1.6269737596657411e-34
    vertex 0.38999999999999896 1.2100000000000006 0.4
    vertex 0.38999999999999896 1.2100000000000006 -1.6269737596657411e-34
  endloop
endfacet
facet normal 4.331468517193617e-13 -1.0 0.0
  outer loop
    vertex -1.9800000000000002 1.9800000000000064 0.4
    vertex -1.99 1.980000000000002 -1.3281418446251129e-34
    vertex -1.9800000000000002 1.9800000000000064 -1.3281418446251129e-34
  endloop
endfacet
facet normal 4.331468517193617e-13 -1.0 0.0
  outer loop
    vertex -1.99 1.980000000000002 -1.3281418446251129e-34
    vertex -1.9800000000000002 1.9800000000000064 0.4
    vertex -1.99 1.980000000000002 0.4
  endloop
endfacet
facet normal -1.0 2.741435770375682e-15 0.0
  outer loop
    vertex -0.42000000000000115 2.790000000000002 0.4
    vertex -0.4200000000000033 2.000000000000003 -1.3281418446251129e-34
    vertex -0.4200000000000033 2.000000000000003 0.4
  endloop
endfacet
facet normal -1.0 2.741435770375682e-15 0.0
  outer loop
    vertex -0.4200000000000033 2.000000000000003 -1.3281418446251129e-34
    vertex -0.42000000000000115 2.790000000000002 0.4
    vertex -0.42000000000000115 2.790000000000002 0.0
  endloop
endfacet
facet normal 0.0 -1.0 0.0
  outer loop
    vertex 0.3899999999999992 2.7900000000000027 0.4
    vertex -0.4100000000000007 2.7900000000000027 0.0
    vertex 0.3899999999999992 2.7900000000000027 0.0
  endloop
endfacet
facet normal 0.0 -1.0 0.0
  outer loop
    vertex -0.4100000000000007 2.7900000000000027 0.0
    vertex 0.3899999999999992 2.7900000000000027 0.4
    vertex -0.4100000000000007 2.7900000000000027 0.4
  endloop
endfacet
facet normal -0.0 1.0 -0.0
  outer loop
    vertex -1.2200000000000037 2.000000000000003 0.4
    vertex -0.4200000000000033 2.000000000000003 -1.3281418446251129e-34
    vertex -1.2200000000000037 2.000000000000003 -1.3281418446251129e-34
  endloop
endfacet
facet normal -0.0 1.0 -0.0
  outer loop
    vertex -0.4200000000000033 2.000000000000003 -1.3281418446251129e-34
    vertex -1.2200000000000037 2.000000000000003 0.4
    vertex -0.4200000000000033 2.000000000000003 0.4
  endloop
endfacet
facet normal 1.0 2.673745998267627e-15 -0.0
  outer loop
    vertex -1.9800000000000024 2.790000000000009 0.0
    vertex -1.9800000000000002 1.9800000000000064 0.4
    vertex -1.9800000000000002 1.9800000000000064 -1.3281418446251129e-34
  endloop
endfacet
facet normal 1.0 2.673745998267627e-15 -0.0
  outer loop
    vertex -1.9800000000000002 1.9800000000000064 0.4
    vertex -1.9800000000000024 2.790000000000009 0.0
    vertex -1.9800000000000024 2.790000000000009 0.4
  endloop
endfacet
facet normal 5.347491996535257e-15 1.0 -0.0
  outer loop
    vertex -1.230000000000005 0.42000000000000925 0.4
    vertex 0.3899999999999995 0.4200000000000006 -1.6269737596657411e-34
    vertex -1.230000000000005 0.42000000000000925 -1.6269737596657411e-34
  endloop
endfacet
facet normal 5.347491996535257e-15 1.0 -0.0
  outer loop
    vertex 0.3899999999999995 0.4200000000000006 -1.6269737596657411e-34
    vertex -1.230000000000005 0.42000000000000925 0.4
    vertex 0.3899999999999995 0.4200000000000006 0.4
  endloop
endfacet
facet normal 1.0 -0.0 -0.0
  outer loop
    vertex -1.220000000000005 1.2200000000000084 -1.6269737596657411e-34
    vertex -1.220000000000005 1.2100000000000086 0.4
    vertex -1.220000000000005 1.2100000000000086 -1.6269737596657411e-34
  endloop
endfacet
facet normal 1.0 -0.0 -0.0
  outer loop
    vertex -1.220000000000005 1.2100000000000086 0.4
    vertex -1.220000000000005 1.2200000000000084 -1.6269737596657411e-34
    vertex -1.220000000000005 1.2200000000000084 0.4
  endloop
endfacet
facet normal -9.498834467529786e-16 -1.0 0.0
  outer loop
    vertex -1.220000000000005 1.2100000000000086 0.4
    vertex -1.980000000000003 1.2100000000000093 -1.6269737596657411e-34
    vertex -1.220000000000005 1.2100000000000086 -1.6269737596657411e-34
  endloop
endfacet
facet normal -9.498834467529786e-16 -1.0 0.0
  outer loop
    vertex -1.980000000000003 1.2100000000000093 -1.6269737596657411e-34
    vertex -1.220000000000005 1.2100000000000086 0.4
    vertex -1.980000000000003 1.2100000000000093 0.4
  endloop
endfacet
facet normal 1.0 9.080646786569337e-16 -0.0
  outer loop
    vertex -2.7900000000000023 2.7899999999999974 0.0
    vertex -2.789999999999999 -0.3900000000000004 0.4
    vertex -2.789999999999999 -0.3900000000000004 0.0
  endloop
endfacet
facet normal 1.0 9.080646786569337e-16 -0.0
  outer loop
    vertex -2.789999999999999 -0.3900000000000004 0.4
    vertex -2.7900000000000023 2.7899999999999974 0.0
    vertex -2.7900000000000023 2.7899999999999974 0.4
  endloop
endfacet
facet normal 1.0 1.804778548830652e-15 -0.0
  outer loop
    vertex -1.980000000000003 1.2100000000000093 -1.6269737596657411e-34
    vertex -1.9800000000000002 -0.3899999999999931 0.4
    vertex -1.9800000000000002 -0.3899999999999931 0.0
  endloop
endfacet
facet normal 1.0 1.804778548830652e-15 -0.0
  outer loop
    vertex -1.9800000000000002 -0.3899999999999931 0.4
    vertex -1.980000000000003 1.2100000000000093 -1.6269737596657411e-34
    vertex -1.980000000000003 1.2100000000000093 0.4
  endloop
endfacet
facet normal -1.0 7.2191141953225e-14 0.0
  outer loop
    vertex -1.230000000000005 0.42000000000000925 0.4
    vertex -1.2300000000000058 0.4100000000000091 -1.6269737596657411e-34
    vertex -1.2300000000000058 0.4100000000000091 0.4
  endloop
endfacet
facet normal -1.0 7.2191141953225e-14 0.0
  outer loop
    vertex -1.2300000000000058 0.4100000000000091 -1.6269737596657411e-34
    vertex -1.230000000000005 0.42000000000000925 0.4
    vertex -1.230000000000005 0.42000000000000925 -1.6269737596657411e-34
  endloop
endfacet
facet normal -8.021237994802894e-15 -1.0 0.0
  outer loop
    vertex 0.38999999999999896 1.2100000000000006 0.4
    vertex -0.4200000000000026 1.210000000000007 -1.6269737596657411e-34
    vertex 0.38999999999999896 1.2100000000000006 -1.6269737596657411e-34
  endloop
endfacet
facet normal -8.021237994802894e-15 -1.0 0.0
  outer loop
    vertex -0.4200000000000026 1.210000000000007 -1.6269737596657411e-34
    vertex 0.38999999999999896 1.2100000000000006 0.4
    vertex -0.4200000000000026 1.210000000000007 0.4
  endloop
endfacet
facet normal -1.0 0.0 0.0
  outer loop
    vertex 0.38999999999999924 0.41000000000000025 0.4
    vertex 0.38999999999999924 -0.38999999999999985 0.0
    vertex 0.38999999999999924 -0.38999999999999985 0.4
  endloop
endfacet
facet normal -1.0 0.0 0.0
  outer loop
    vertex 0.38999999999999924 -0.38999999999999985 0.0
    vertex 0.38999999999999924 0.41000000000000025 0.4
    vertex 0.38999999999999924 0.41000000000000025 -1.6269737596657411e-34
  endloop
endfacet
facet normal -1.0 0.0 0.0
  outer loop
    vertex -0.4200000000000026 1.2200000000000077 0.4
    vertex -0.4200000000000026 1.210000000000007 -1.6269737596657411e-34
    vertex -0.4200000000000026 1.210000000000007 0.4
  endloop
endfacet
facet normal -1.0 0.0 0.0
  outer loop
    vertex -0.4200000000000026 1.210000000000007 -1.6269737596657411e-34
    vertex -0.4200000000000026 1.2200000000000077 0.4
    vertex -0.4200000000000026 1.2200000000000077 -1.6269737596657411e-34
  endloop
endfacet
facet normal -0.0 -0.0 1.0
  outer loop
    vertex -0.41000000000000325 1.9900000000000027 0.4
    vertex -1.2200000000000037 2.000000000000003 0.4
    vertex -1.2200000000000037 1.9900000000000033 0.4
  endloop
endfacet
facet normal -0.0 -0.0 1.0
  outer loop
    vertex -1.2200000000000037 2.000000000000003 0.4
    vertex -0.41000000000000325 1.9900000000000027 0.4
    vertex -0.4200000000000033 2.000000000000003 0.4
  endloop
endfacet
facet normal -0.0 -0.0 1.0
  outer loop
    vertex -0.4200000000000033 2.000000000000003 0.4
    vertex -0.41000000000000325 1.9900000000000027 0.4
    vertex -0.42000000000000115 2.790000000000002 0.4
  endloop
endfacet
facet normal -0.0 -0.0 1.0
  outer loop
    vertex -2.8 -0.4 0.4
    vertex -2.789999999999999 -0.3900000000000004 0.4
    vertex -2.7900000000000023 2.7899999999999974 0.4
  endloop
endfacet
facet normal -0.0 -0.0 1.0
  outer loop
    vertex -2.789999999999999 -0.3900000000000004 0.4
    vertex -2.8 -0.4 0.4
    vertex 0.4 -0.4 0.4
  endloop
endfacet
facet normal -0.0 -0.0 1.0
  outer loop
    vertex -2.789999999999999 -0.3900000000000004 0.4
    vertex 0.4 -0.4 0.4
    vertex -1.9900000000000009 -0.38999999999999324 0.4
  endloop
endfacet
facet normal -0.0 -0.0 1.0
  outer loop
    vertex -1.9900000000000009 -0.38999999999999324 0.4
    vertex 0.4 -0.4 0.4
    vertex -1.9800000000000002 -0.3899999999999931 0.4
  endloop
endfacet
facet normal -0.0 -0.0 1.0
  outer loop
    vertex -1.9900000000000009 -0.38999999999999324 0.4
    vertex -1.9800000000000002 -0.3899999999999931 0.4
    vertex -1.980000000000003 1.2100000000000093 0.4
  endloop
endfacet
facet normal -0.0 -0.0 1.0
  outer loop
    vertex -1.9800000000000002 -0.3899999999999931 0.4
    vertex 0.4 -0.4 0.4
    vertex 0.38999999999999924 -0.38999999999999985 0.4
  endloop
endfacet
facet normal -0.0 -0.0 1.0
  outer loop
    vertex 0.38999999999999924 -0.38999999999999985 0.4
    vertex 0.4 -0.4 0.4
    vertex 0.38999999999999924 0.41000000000000025 0.4
  endloop
endfacet
facet normal -0.0 -0.0 1.0
  outer loop
    vertex 0.38999999999999924 0.41000000000000025 0.4
    vertex 0.4 -0.4 0.4
    vertex 0.3899999999999995 0.4200000000000006 0.4
  endloop
endfacet
facet normal -0.0 -0.0 1.0
  outer loop
    vertex 0.3899999999999995 0.4200000000000006 0.4
    vertex 0.4 -0.4 0.4
    vertex 0.3899999999999995 1.2200000000000004 0.4
  endloop
endfacet
facet normal -0.0 -0.0 1.0
  outer loop
    vertex 0.3899999999999995 1.2200000000000004 0.4
    vertex 0.4 -0.4 0.4
    vertex 0.39999999999999925 2.8000000000000016 0.4
  endloop
endfacet
facet normal -0.0 -0.0 1.0
  outer loop
    vertex -2.800000000000002 2.799999999999999 0.4
    vertex -2.7900000000000023 2.7899999999999974 0.4
    vertex 0.39999999999999925 2.8000000000000016 0.4
  endloop
endfacet
facet normal -0.0 -0.0 1.0
  outer loop
    vertex -2.7900000000000023 2.7899999999999974 0.4
    vertex -2.800000000000002 2.799999999999999 0.4
    vertex -2.8 -0.4 0.4
  endloop
endfacet
facet normal -0.0 -0.0 1.0
  outer loop
    vertex 0.39999999999999925 2.8000000000000016 0.4
    vertex -2.7900000000000023 2.7899999999999974 0.4
    vertex -1.9900000000000022 2.7900000000000094 0.4
  endloop
endfacet
facet normal -0.0 -0.0 1.0
  outer loop
    vertex 0.39999999999999925 2.8000000000000016 0.4
    vertex -1.9900000000000022 2.7900000000000094 0.4
    vertex -1.9800000000000024 2.790000000000009 0.4
  endloop
endfacet
facet normal -0.0 -0.0 1.0
  outer loop
    vertex -1.9800000000000024 2.790000000000009 0.4
    vertex -1.9900000000000022 2.7900000000000094 0.4
    vertex -1.99 1.980000000000002 0.4
  endloop
endfacet
facet normal -0.0 -0.0 1.0
  outer loop
    vertex 0.39999999999999925 2.8000000000000016 0.4
    vertex -1.9800000000000024 2.790000000000009 0.4
    vertex -0.42000000000000115 2.790000000000002 0.4
  endloop
endfacet
facet normal -0.0 -0.0 1.0
  outer loop
    vertex 0.39999999999999925 2.8000000000000016 0.4
    vertex -0.42000000000000115 2.790000000000002 0.4
    vertex -0.4100000000000007 2.7900000000000027 0.4
  endloop
endfacet
facet normal -0.0 -0.0 1.0
  outer loop
    vertex -0.4100000000000007 2.7900000000000027 0.4
    vertex -0.42000000000000115 2.790000000000002 0.4
    vertex -0.41000000000000325 1.9900000000000027 0.4
  endloop
endfacet
facet normal -0.0 -0.0 1.0
  outer loop
    vertex 0.39999999999999925 2.8000000000000016 0.4
    vertex -0.4100000000000007 2.7900000000000027 0.4
    vertex 0.3899999999999992 2.7900000000000027 0.4
  endloop
endfacet
facet normal -0.0 -0.0 1.0
  outer loop
    vertex 0.39999999999999925 2.8000000000000016 0.4
    vertex 0.3899999999999992 2.7900000000000027 0.4
    vertex 0.3899999999999995 1.2200000000000004 0.4
  endloop
endfacet
facet normal -0.0 -0.0 1.0
  outer loop
    vertex 0.38999999999999896 1.2100000000000006 0.4
    vertex -0.4200000000000026 1.2200000000000077 0.4
    vertex -0.4200000000000026 1.210000000000007 0.4
  endloop
endfacet
facet normal -0.0 -0.0 1.0
  outer loop
    vertex -0.4200000000000026 1.2200000000000077 0.4
    vertex 0.38999999999999896 1.2100000000000006 0.4
    vertex 0.3899999999999995 1.2200000000000004 0.4
  endloop
endfacet
facet normal -0.0 -0.0 1.0
  outer loop
    vertex 0.3899999999999995 1.2200000000000004 0.4
    vertex 0.38999999999999896 1.2100000000000006 0.4
    vertex 0.3899999999999995 0.4200000000000006 0.4
  endloop
endfacet
facet normal -0.0 -0.0 1.0
  outer loop
    vertex 0.38999999999999924 0.41000000000000025 0.4
    vertex -1.230000000000005 0.42000000000000925 0.4
    vertex -1.2300000000000058 0.4100000000000091 0.4
  endloop
endfacet
facet normal -0.0 -0.0 1.0
  outer loop
    vertex -1.230000000000005 0.42000000000000925 0.4
    vertex 0.38999999999999924 0.41000000000000025 0.4
    vertex 0.3899999999999995 0.4200000000000006 0.4
  endloop
endfacet
facet normal -0.0 -0.0 1.0
  outer loop
    vertex -1.9900000000000022 1.2200000000000084 0.4
    vertex -1.980000000000003 1.2100000000000093 0.4
    vertex -1.220000000000005 1.2200000000000084 0.4
  endloop
endfacet
facet normal -0.0 -0.0 1.0
  outer loop
    vertex -1.980000000000003 1.2100000000000093 0.4
    vertex -1.9900000000000022 1.2200000000000084 0.4
    vertex -1.9900000000000009 -0.38999999999999324 0.4
  endloop
endfacet
facet normal -0.0 -0.0 1.0
  outer loop
    vertex -1.220000000000005 1.2200000000000084 0.4
    vertex -1.980000000000003 1.2100000000000093 0.4
    vertex -1.220000000000005 1.2100000000000086 0.4
  endloop
endfacet
facet normal -0.0 -0.0 1.0
  outer loop
    vertex -1.9800000000000002 1.9800000000000064 0.4
    vertex -1.9800000000000024 2.790000000000009 0.4
    vertex -1.99 1.980000000000002 0.4
  endloop
endfacet
facet normal 0.0 0.0 -1.0
  outer loop
    vertex -1.9900000000000022 1.2200000000000084 -1.6269737596657411e-34
    vertex -1.980000000000003 1.2100000000000093 -1.6269737596657411e-34
    vertex -1.9900000000000009 -0.38999999999999324 0.0
  endloop
endfacet
facet normal 0.0 0.0 -1.0
  outer loop
    vertex -1.980000000000003 1.2100000000000093 -1.6269737596657411e-34
    vertex -1.9900000000000022 1.2200000000000084 -1.6269737596657411e-34
    vertex -1.220000000000005 1.2200000000000084 -1.6269737596657411e-34
  endloop
endfacet
facet normal 0.0 0.0 -1.0
  outer loop
    vertex -1.980000000000003 1.2100000000000093 -1.6269737596657411e-34
    vertex -1.220000000000005 1.2200000000000084 -1.6269737596657411e-34
    vertex -1.220000000000005 1.2100000000000086 -1.6269737596657411e-34
  endloop
endfacet
facet normal 0.0 0.0 -1.0
  outer loop
    vertex -1.230000000000005 0.42000000000000925 -1.6269737596657411e-34
    vertex 0.38999999999999924 0.41000000000000025 -1.6269737596657411e-34
    vertex -1.2300000000000058 0.4100000000000091 -1.6269737596657411e-34
  endloop
endfacet
facet normal 0.0 0.0 -1.0
  outer loop
    vertex 0.38999999999999924 0.41000000000000025 -1.6269737596657411e-34
    vertex -1.230000000000005 0.42000000000000925 -1.6269737596657411e-34
    vertex 0.3899999999999995 0.4200000000000006 -1.6269737596657411e-34
  endloop
endfacet
facet normal 0.0 0.0 -1.0
  outer loop
    vertex 0.38999999999999924 0.41000000000000025 -1.6269737596657411e-34
    vertex 0.3899999999999995 0.4200000000000006 -1.6269737596657411e-34
    vertex 0.38999999999999924 -0.38999999999999985 0.0
  endloop
endfacet
facet normal 0.0 0.0 -1.0
  outer loop
    vertex -2.800000000000002 2.799999999999999 0.0
    vertex -2.7900000000000023 2.7899999999999974 0.0
    vertex -2.8 -0.4 0.0
  endloop
endfacet
facet normal 0.0 0.0 -1.0
  outer loop
    vertex -2.7900000000000023 2.7899999999999974 0.0
    vertex -2.800000000000002 2.799999999999999 0.0
    vertex 0.39999999999999925 2.8000000000000016 0.0
  endloop
endfacet
facet normal 0.0 0.0 -1.0
  outer loop
    vertex -2.7900000000000023 2.7899999999999974 0.0
    vertex 0.39999999999999925 2.8000000000000016 0.0
    vertex -1.9900000000000022 2.7900000000000094 0.0
  endloop
endfacet
facet normal 0.0 0.0 -1.0
  outer loop
    vertex -1.9900000000000022 2.7900000000000094 0.0
    vertex 0.39999999999999925 2.8000000000000016 0.0
    vertex -1.9800000000000024 2.790000000000009 0.0
  endloop
endfacet
facet normal 0.0 0.0 -1.0
  outer loop
    vertex -1.9900000000000022 2.7900000000000094 0.0
    vertex -1.9800000000000024 2.790000000000009 0.0
    vertex -1.99 1.980000000000002 -1.3281418446251129e-34
  endloop
endfacet
facet normal 0.0 0.0 -1.0
  outer loop
    vertex -1.9800000000000024 2.790000000000009 0.0
    vertex 0.39999999999999925 2.8000000000000016 0.0
    vertex -0.42000000000000115 2.790000000000002 0.0
  endloop
endfacet
facet normal 0.0 0.0 -1.0
  outer loop
    vertex -0.42000000000000115 2.790000000000002 0.0
    vertex 0.39999999999999925 2.8000000000000016 0.0
    vertex -0.4100000000000007 2.7900000000000027 0.0
  endloop
endfacet
facet normal 0.0 0.0 -1.0
  outer loop
    vertex -0.42000000000000115 2.790000000000002 0.0
    vertex -0.4100000000000007 2.7900000000000027 0.0
    vertex -0.41000000000000325 1.9900000000000027 -1.3281418446251129e-34
  endloop
endfacet
facet normal 0.0 0.0 -1.0
  outer loop
    vertex -0.4100000000000007 2.7900000000000027 0.0
    vertex 0.39999999999999925 2.8000000000000016 0.0
    vertex 0.3899999999999992 2.7900000000000027 0.0
  endloop
endfacet
facet normal 0.0 0.0 -1.0
  outer loop
    vertex 0.3899999999999992 2.7900000000000027 0.0
    vertex 0.39999999999999925 2.8000000000000016 0.0
    vertex 0.3899999999999995 1.2200000000000004 -1.6269737596657411e-34
  endloop
endfacet
facet normal 0.0 0.0 -1.0
  outer loop
    vertex 0.3899999999999995 1.2200000000000004 -1.6269737596657411e-34
    vertex 0.39999999999999925 2.8000000000000016 0.0
    vertex 0.3899999999999995 0.4200000000000006 -1.6269737596657411e-34
  endloop
endfacet
facet normal 0.0 0.0 -1.0
  outer loop
    vertex -2.8 -0.4 0.0
    vertex -2.789999999999999 -0.3900000000000004 0.0
    vertex 0.4 -0.4 0.0
  endloop
endfacet
facet normal 0.0 0.0 -1.0
  outer loop
    vertex -2.789999999999999 -0.3900000000000004 0.0
    vertex -2.8 -0.4 0.0
    vertex -2.7900000000000023 2.7899999999999974 0.0
  endloop
endfacet
facet normal 0.0 0.0 -1.0
  outer loop
    vertex 0.4 -0.4 0.0
    vertex -2.789999999999999 -0.3900000000000004 0.0
    vertex -1.9900000000000009 -0.38999999999999324 0.0
  endloop
endfacet
facet normal 0.0 0.0 -1.0
  outer loop
    vertex 0.4 -0.4 0.0
    vertex -1.9900000000000009 -0.38999999999999324 0.0
    vertex -1.9800000000000002 -0.3899999999999931 0.0
  endloop
endfacet
facet normal 0.0 0.0 -1.0
  outer loop
    vertex -1.9800000000000002 -0.3899999999999931 0.0
    vertex -1.9900000000000009 -0.38999999999999324 0.0
    vertex -1.980000000000003 1.2100000000000093 -1.6269737596657411e-34
  endloop
endfacet
facet normal 0.0 0.0 -1.0
  outer loop
    vertex 0.4 -0.4 0.0
    vertex -1.9800000000000002 -0.3899999999999931 0.0
    vertex 0.38999999999999924 -0.38999999999999985 0.0
  endloop
endfacet
facet normal 0.0 0.0 -1.0
  outer loop
    vertex 0.4 -0.4 0.0
    vertex 0.38999999999999924 -0.38999999999999985 0.0
    vertex 0.3899999999999995 0.4200000000000006 -1.6269737596657411e-34
  endloop
endfacet
facet normal 0.0 0.0 -1.0
  outer loop
    vertex 0.4 -0.4 0.0
    vertex 0.3899999999999995 0.4200000000000006 -1.6269737596657411e-34
    vertex 0.39999999999999925 2.8000000000000016 0.0
  endloop
endfacet
facet normal 0.0 0.0 -1.0
  outer loop
    vertex 0.3899999999999995 1.2200000000000004 -1.6269737596657411e-34
    vertex -0.4200000000000026 1.210000000000007 -1.6269737596657411e-34
    vertex -0.4200000000000026 1.2200000000000077 -1.6269737596657411e-34
  endloop
endfacet
facet normal 0.0 0.0 -1.0
  outer loop
    vertex -0.4200000000000026 1.210000000000007 -1.6269737596657411e-34
    vertex 0.3899999999999995 1.2200000000000004 -1.6269737596657411e-34
    vertex 0.38999999999999896 1.2100000000000006 -1.6269737596657411e-34
  endloop
endfacet
facet normal 0.0 0.0 -1.0
  outer loop
    vertex 0.38999999999999896 1.2100000000000006 -1.6269737596657411e-34
    vertex 0.3899999999999995 1.2200000000000004 -1.6269737596657411e-34
    vertex 0.3899999999999995 0.4200000000000006 -1.6269737596657411e-34
  endloop
endfacet
facet normal 0.0 0.0 -1.0
  outer loop
    vertex -0.4200000000000033 2.000000000000003 -1.3281418446251129e-34
    vertex -1.2200000000000037 1.9900000000000033 -1.3281418446251129e-34
    vertex -1.2200000000000037 2.000000000000003 -1.3281418446251129e-34
  endloop
endfacet
facet normal 0.0 0.0 -1.0
  outer loop
    vertex -1.2200000000000037 1.9900000000000033 -1.3281418446251129e-34
    vertex -0.4200000000000033 2.000000000000003 -1.3281418446251129e-34
    vertex -0.41000000000000325 1.9900000000000027 -1.3281418446251129e-34
  endloop
endfacet
facet normal 0.0 0.0 -1.0
  outer loop
    vertex -0.41000000000000325 1.9900000000000027 -1.3281418446251129e-34
    vertex -0.4200000000000033 2.000000000000003 -1.3281418446251129e-34
    vertex -0.42000000000000115 2.790000000000002 0.0
  endloop
endfacet
facet normal 0.0 0.0 -1.0
  outer loop
    vertex -1.9800000000000002 1.9800000000000064 -1.3281418446251129e-34
    vertex -1.99 1.980000000000002 -1.3281418446251129e-34
    vertex -1.9800000000000024 2.790000000000009 0.0
  endloop
endfacet
endsolid maze-80cm
