solid maze
facet normal -0.0 -0.0 1.0
  outer loop
    vertex 0.9099999999999999 0.8999999999999996 0.4
    vertex 0.9 1.5000000000000004 0.4
    vertex 0.9 0.8999999999999996 0.4
  endloop
endfacet
facet normal -0.0 -0.0 1.0
  outer loop
    vertex 0.9 1.5000000000000004 0.4
    vertex -0.2900000000000001 1.5100000000000002 0.4
    vertex -0.2900000000000001 1.5000000000000004 0.4
  endloop
endfacet
facet normal -0.0 -0.0 1.0
  outer loop
    vertex -0.2900000000000001 1.5100000000000002 0.4
    vertex 0.9 1.5000000000000004 0.4
    vertex 0.9099999999999999 1.5100000000000002 0.4
  endloop
endfacet
facet normal -0.0 -0.0 1.0
  outer loop
    vertex 0.9099999999999999 1.5100000000000002 0.4
    vertex 0.9 1.5000000000000004 0.4
    vertex 0.9099999999999999 0.8999999999999996 0.4
  endloop
endfacet
facet normal -0.0 -0.0 1.0
  outer loop
    vertex -0.29999999999999966 -0.29999999999999993 0.4
    vertex -0.28999999999999976 -0.28999999999999954 0.4
    vertex -0.29999999999999966 2.0999999999999988 0.4
  endloop
endfacet
facet normal -0.0 -0.0 1.0
  outer loop
    vertex -0.28999999999999976 -0.28999999999999954 0.4
    vertex -0.29999999999999966 -0.29999999999999993 0.4
    vertex 2.0999999999999996 -0.29999999999999993 0.4
  endloop
endfacet
facet normal -0.0 -0.0 1.0
  outer loop
    vertex -0.29999999999999966 2.0999999999999988 0.4
    vertex -0.28999999999999976 -0.28999999999999954 0.4
    vertex -0.2900000000000001 1.5000000000000004 0.4
  endloop
endfacet
facet normal -0.0 -0.0 1.0
  outer loop
    vertex -0.28999999999999976 -0.28999999999999954 0.4
    vertex 2.0999999999999996 -0.29999999999999993 0.4
    vertex 0.3 -0.28999999999999954 0.4
  endloop
endfacet
facet normal -0.0 -0.0 1.0
  outer loop
    vertex 0.3 -0.28999999999999954 0.4
    vertex 2.0999999999999996 -0.29999999999999993 0.4
    vertex 0.3100000000000003 -0.28999999999999954 0.4
  endloop
endfacet
facet normal -0.0 -0.0 1.0
  outer loop
    vertex 0.3 -0.28999999999999954 0.4
    vertex 0.3100000000000003 -0.28999999999999954 0.4
    vertex 0.3 0.9099999999999999 0.4
  endloop
endfacet
facet normal -0.0 -0.0 1.0
  outer loop
    vertex 0.3100000000000003 -0.28999999999999954 0.4
    vertex 2.0999999999999996 -0.29999999999999993 0.4
    vertex 0.9 -0.28999999999999954 0.4
  endloop
endfacet
facet normal -0.0 -0.0 1.0
  outer loop
    vertex 0.9 -0.28999999999999954 0.4
    vertex 2.0999999999999996 -0.29999999999999993 0.4
    vertex 0.9099999999999999 -0.2899999999999999 0.4
  endloop
endfacet
facet normal -0.0 -0.0 1.0
  outer loop
    vertex 0.9 -0.28999999999999954 0.4
    vertex 0.9099999999999999 -0.2899999999999999 0.4
    vertex 0.9 0.31 0.4
  endloop
endfacet
facet normal -0.0 -0.0 1.0
  outer loop
    vertex 0.9099999999999999 -0.2899999999999999 0.4
    vertex 2.0999999999999996 -0.29999999999999993 0.4
    vertex 2.089999999999999 -0.28999999999999954 0.4
  endloop
endfacet
facet normal -0.0 -0.0 1.0
  outer loop
    vertex 2.089999999999999 -0.28999999999999954 0.4
    vertex 2.0999999999999996 -0.29999999999999993 0.4
    vertex 2.089999999999999 0.3000000000000001 0.4
  endloop
endfacet
facet normal -0.0 -0.0 1.0
  outer loop
    vertex 2.089999999999999 0.3000000000000001 0.4
    vertex 2.0999999999999996 -0.29999999999999993 0.4
    vertex 2.089999999999999 0.31000000000000005 0.4
  endloop
endfacet
facet normal -0.0 -0.0 1.0
  outer loop
    vertex 2.089999999999999 0.31000000000000005 0.4
    vertex 2.0999999999999996 -0.29999999999999993 0.4
    vertex 2.089999999999999 1.5000000000000004 0.4
  endloop
endfacet
facet normal -0.0 -0.0 1.0
  outer loop
    vertex 2.089999999999999 1.5000000000000004 0.4
    vertex 2.0999999999999996 -0.29999999999999993 0.4
    vertex 2.089999999999999 1.5100000000000002 0.4
  endloop
endfacet
facet normal -0.0 -0.0 1.0
  outer loop
    vertex 2.089999999999999 1.5100000000000002 0.4
    vertex 2.0999999999999996 -0.29999999999999993 0.4
    vertex 2.089999999999999 2.09 0.4
  endloop
endfacet
facet normal -0.0 -0.0 1.0
  outer loop
    vertex -0.29999999999999966 2.0999999999999988 0.4
    vertex -0.2900000000000001 2.089999999999999 0.4
    vertex 2.0999999999999996 2.0999999999999988 0.4
  endloop
endfacet
facet normal -0.0 -0.0 1.0
  outer loop
    vertex -0.2900000000000001 2.089999999999999 0.4
    vertex -0.29999999999999966 2.0999999999999988 0.4
    vertex -0.2900000000000001 1.5000000000000004 0.4
  endloop
endfacet
facet normal -0.0 -0.0 1.0
  outer loop
    vertex -0.2900000000000001 2.089999999999999 0.4
    vertex -0.2900000000000001 1.5000000000000004 0.4
    vertex -0.2900000000000001 1.5100000000000002 0.4
  endloop
endfacet
facet normal -0.0 -0.0 1.0
  outer loop
    vertex 2.0999999999999996 2.0999999999999988 0.4
    vertex -0.2900000000000001 2.089999999999999 0.4
    vertex 2.089999999999999 2.09 0.4
  endloop
endfacet
facet normal -0.0 -0.0 1.0
  outer loop
    vertex 2.0999999999999996 2.0999999999999988 0.4
    vertex 2.089999999999999 2.09 0.4
    vertex 2.0999999999999996 -0.29999999999999993 0.4
  endloop
endfacet
facet normal -0.0 -0.0 1.0
  outer loop
    vertex 2.089999999999999 1.5000000000000004 0.4
    vertex 1.49 1.5100000000000002 0.4
    vertex 1.49 1.5000000000000004 0.4
  endloop
endfacet
facet normal -0.0 -0.0 1.0
  outer loop
    vertex 1.49 1.5100000000000002 0.4
    vertex 2.089999999999999 1.5000000000000004 0.4
    vertex 2.089999999999999 1.5100000000000002 0.4
  endloop
endfacet
facet normal -0.0 -0.0 1.0
  outer loop
    vertex 1.5000000000000004 0.3 0.4
    vertex 1.5100000000000002 0.31 0.4
    vertex 1.5000000000000004 0.9 0.4
  endloop
endfacet
facet normal -0.0 -0.0 1.0
  outer loop
    vertex 1.5100000000000002 0.31 0.4
    vertex 1.5000000000000004 0.3 0.4
    vertex 2.089999999999999 0.3000000000000001 0.4
  endloop
endfacet
facet normal -0.0 -0.0 1.0
  outer loop
    vertex 1.5100000000000002 0.31 0.4
    vertex 2.089999999999999 0.3000000000000001 0.4
    vertex 2.089999999999999 0.31000000000000005 0.4
  endloop
endfacet
facet normal -0.0 -0.0 1.0
  outer loop
    vertex 1.5100000000000002 0.9 0.4
    vertex 1.5000000000000004 0.9 0.4
    vertex 1.5100000000000002 0.31 0.4
  endloop
endfacet
facet normal -0.0 -0.0 1.0
  outer loop
    vertex 0.9099999999999999 0.3099999999999999 0.4
    vertex 0.9 0.31 0.4
    vertex 0.9099999999999999 -0.2899999999999999 0.4
  endloop
endfacet
facet normal -0.0 -0.0 1.0
  outer loop
    vertex 0.31000000000000033 0.9099999999999999 0.4
    vertex 0.3 0.9099999999999999 0.4
    vertex 0.3100000000000003 -0.28999999999999954 0.4
  endloop
endfacet
facet normal 0.0 0.0 -1.0
  outer loop
    vertex 0.9099999999999999 1.5100000000000002 1.602965359409096e-31
    vertex -0.2900000000000001 1.5000000000000004 1.602965359409096e-31
    vertex -0.2900000000000001 1.5100000000000002 1.602965359409096e-31
  endloop
endfacet
facet normal 0.0 0.0 -1.0
  outer loop
    vertex -0.2900000000000001 1.5000000000000004 1.602965359409096e-31
    vertex 0.9099999999999999 1.5100000000000002 1.602965359409096e-31
    vertex 0.9 1.5000000000000004 1.602965359409096e-31
  endloop
endfacet
facet normal 0.0 0.0 -1.0
  outer loop
    vertex 0.9 1.5000000000000004 1.602965359409096e-31
    vertex 0.9099999999999999 1.5100000000000002 1.602965359409096e-31
    vertex 0.9 0.8999999999999996 1.602965359409096e-31
  endloop
endfacet
facet normal 0.0 0.0 -1.0
  outer loop
    vertex 0.9 0.8999999999999996 1.602965359409096e-31
    vertex 0.9099999999999999 1.5100000000000002 1.602965359409096e-31
    vertex 0.9099999999999999 0.8999999999999996 1.602965359409096e-31
  endloop
endfacet
facet normal 0.0 0.0 -1.0
  outer loop
    vertex 0.31000000000000033 0.9099999999999999 1.602965359409096e-31
    vertex 0.3 -0.28999999999999954 1.602965359409096e-31
    vertex 0.3 0.9099999999999999 1.602965359409096e-31
  endloop
endfacet
facet normal 0.0 0.0 -1.0
  outer loop
    vertex 0.3 -0.28999999999999954 1.602965359409096e-31
    vertex 0.31000000000000033 0.9099999999999999 1.602965359409096e-31
    vertex 0.3100000000000003 -0.28999999999999954 1.602965359409096e-31
  endloop
endfacet
facet normal 0.0 0.0 -1.0
  outer loop
    vertex 0.9099999999999999 0.3099999999999999 1.602965359409096e-31
    vertex 0.9 -0.28999999999999954 1.602965359409096e-31
    vertex 0.9 0.31 1.602965359409096e-31
  endloop
endfacet
facet normal 0.0 0.0 -1.0
  outer loop
    vertex -0.29999999999999966 2.0999999999999988 1.602965359409096e-31
    vertex -0.2900000000000001 2.089999999999999 1.602965359409096e-31
    vertex -0.29999999999999966 -0.29999999999999993 1.602965359409096e-31
  endloop
endfacet
facet normal 0.0 0.0 -1.0
  outer loop
    vertex -0.2900000000000001 2.089999999999999 1.602965359409096e-31
    vertex -0.29999999999999966 2.0999999999999988 1.602965359409096e-31
    vertex 2.0999999999999996 2.0999999999999988 1.602965359409096e-31
  endloop
endfacet
facet normal 0.0 0.0 -1.0
  outer loop
    vertex -0.2900000000000001 2.089999999999999 1.602965359409096e-31
    vertex 2.0999999999999996 2.0999999999999988 1.602965359409096e-31
    vertex 2.089999999999999 2.09 1.602965359409096e-31
  endloop
endfacet
facet normal 0.0 0.0 -1.0
  outer loop
    vertex 2.089999999999999 2.09 1.602965359409096e-31
    vertex 2.0999999999999996 2.0999999999999988 1.602965359409096e-31
    vertex 2.089999999999999 1.5100000000000002 1.602965359409096e-31
  endloop
endfacet
facet normal 0.0 0.0 -1.0
  outer loop
    vertex 2.089999999999999 1.5100000000000002 1.602965359409096e-31
    vertex 2.0999999999999996 2.0999999999999988 1.602965359409096e-31
    vertex 2.089999999999999 1.5000000000000004 1.602965359409096e-31
  endloop
endfacet
facet normal 0.0 0.0 -1.0
  outer loop
    vertex 2.089999999999999 1.5000000000000004 1.602965359409096e-31
    vertex 2.0999999999999996 2.0999999999999988 1.602965359409096e-31
    vertex 2.089999999999999 0.31000000000000005 1.602965359409096e-31
  endloop
endfacet
facet normal 0.0 0.0 -1.0
  outer loop
    vertex 2.089999999999999 0.31000000000000005 1.602965359409096e-31
    vertex 2.0999999999999996 2.0999999999999988 1.602965359409096e-31
    vertex 2.089999999999999 0.3000000000000001 1.602965359409096e-31
  endloop
endfacet
facet normal 0.0 0.0 -1.0
  outer loop
    vertex 2.089999999999999 0.3000000000000001 1.602965359409096e-31
    vertex 2.0999999999999996 2.0999999999999988 1.602965359409096e-31
    vertex 2.089999999999999 -0.28999999999999954 1.602965359409096e-31
  endloop
endfacet
facet normal 0.0 0.0 -1.0
  outer loop
    vertex -0.29999999999999966 -0.29999999999999993 1.602965359409096e-31
    vertex -0.28999999999999976 -0.28999999999999954 1.602965359409096e-31
    vertex 2.0999999999999996 -0.29999999999999993 1.602965359409096e-31
  endloop
endfacet
facet normal 0.0 0.0 -1.0
  outer loop
    vertex -0.28999999999999976 -0.28999999999999954 1.602965359409096e-31
    vertex -0.29999999999999966 -0.29999999999999993 1.602965359409096e-31
    vertex -0.2900000000000001 1.5000000000000004 1.602965359409096e-31
  endloop
endfacet
facet normal 0.0 0.0 -1.0
  outer loop
    vertex -0.2900000000000001 1.5000000000000004 1.602965359409096e-31
    vertex -0.29999999999999966 -0.29999999999999993 1.602965359409096e-31
    vertex -0.2900000000000001 2.089999999999999 1.602965359409096e-31
  endloop
endfacet
facet normal 0.0 0.0 -1.0
  outer loop
    vertex -0.2900000000000001 1.5000000000000004 1.602965359409096e-31
    vertex -0.2900000000000001 2.089999999999999 1.602965359409096e-31
    vertex -0.2900000000000001 1.5100000000000002 1.602965359409096e-31
  endloop
endfacet
facet normal 0.0 0.0 -1.0
  outer loop
    vertex 2.0999999999999996 -0.29999999999999993 1.602965359409096e-31
    vertex -0.28999999999999976 -0.28999999999999954 1.602965359409096e-31
    vertex 0.3 -0.28999999999999954 1.602965359409096e-31
  endloop
endfacet
facet normal 0.0 0.0 -1.0
  outer loop
    vertex 2.0999999999999996 -0.29999999999999993 1.602965359409096e-31
    vertex 0.3 -0.28999999999999954 1.602965359409096e-31
    vertex 0.3100000000000003 -0.28999999999999954 1.602965359409096e-31
  endloop
endfacet
facet normal 0.0 0.0 -1.0
  outer loop
    vertex 2.0999999999999996 -0.29999999999999993 1.602965359409096e-31
    vertex 0.3100000000000003 -0.28999999999999954 1.602965359409096e-31
    vertex 0.9 -0.28999999999999954 1.602965359409096e-31
  endloop
endfacet
facet normal 0.0 0.0 -1.0
  outer loop
    vertex 2.0999999999999996 -0.29999999999999993 1.602965359409096e-31
    vertex 0.9 -0.28999999999999954 1.602965359409096e-31
    vertex 0.9099999999999999 -0.2899999999999999 1.602965359409096e-31
  endloop
endfacet
facet normal 0.0 0.0 -1.0
  outer loop
    vertex 0.9099999999999999 -0.2899999999999999 1.602965359409096e-31
    vertex 0.9 -0.28999999999999954 1.602965359409096e-31
    vertex 0.9099999999999999 0.3099999999999999 1.602965359409096e-31
  endloop
endfacet
facet normal 0.0 0.0 -1.0
  outer loop
    vertex 2.0999999999999996 -0.29999999999999993 1.602965359409096e-31
    vertex 0.9099999999999999 -0.2899999999999999 1.602965359409096e-31
    vertex 2.089999999999999 -0.28999999999999954 1.602965359409096e-31
  endloop
endfacet
facet normal 0.0 0.0 -1.0
  outer loop
    vertex 2.0999999999999996 -0.29999999999999993 1.602965359409096e-31
    vertex 2.089999999999999 -0.28999999999999954 1.602965359409096e-31
    vertex 2.0999999999999996 2.0999999999999988 1.602965359409096e-31
  endloop
endfacet
facet normal 0.0 0.0 -1.0
  outer loop
    vertex 1.5100000000000002 0.9 1.602965359409096e-31
    vertex 1.5000000000000004 0.3 1.602965359409096e-31
    vertex 1.5000000000000004 0.9 1.602965359409096e-31
  endloop
endfacet
facet normal 0.0 0.0 -1.0
  outer loop
    vertex 1.5000000000000004 0.3 1.602965359409096e-31
    vertex 1.5100000000000002 0.9 1.602965359409096e-31
    vertex 1.5100000000000002 0.31 1.602965359409096e-31
  endloop
endfacet
facet normal 0.0 0.0 -1.0
  outer loop
    vertex 1.5000000000000004 0.3 1.602965359409096e-31
    vertex 1.5100000000000002 0.31 1.602965359409096e-31
    vertex 2.089999999999999 0.3000000000000001 1.602965359409096e-31
  endloop
endfacet
facet normal 0.0 0.0 -1.0
  outer loop
    vertex 2.089999999999999 0.3000000000000001 1.602965359409096e-31
    vertex 1.5100000000000002 0.31 1.602965359409096e-31
    vertex 2.089999999999999 0.31000000000000005 1.602965359409096e-31
  endloop
endfacet
facet normal 0.0 0.0 -1.0
  outer loop
    vertex 2.089999999999999 1.5100000000000002 1.602965359409096e-31
    vertex 1.49 1.5000000000000004 1.602965359409096e-31
    vertex 1.49 1.5100000000000002 1.602965359409096e-31
  endloop
endfacet
facet normal 0.0 0.0 -1.0
  outer loop
    vertex 1.49 1.5000000000000004 1.602965359409096e-31
    vertex 2.089999999999999 1.5100000000000002 1.602965359409096e-31
    vertex 2.089999999999999 1.5000000000000004 1.602965359409096e-31
  endloop
endfacet
facet normal -1.5558435765781538e-16 1.0 0.0
  outer loop
    vertex 1.5100000000000002 0.31 0.4
    vertex 2.089999999999999 0.31000000000000005 1.602965359409096e-31
    vertex 1.5100000000000002 0.31 1.602965359409096e-31
  endloop
endfacet
facet normal -1.5558435765781538e-16 1.0 0.0
  outer loop
    vertex 2.089999999999999 0.31000000000000005 1.602965359409096e-31
    vertex 1.5100000000000002 0.31 0.4
    vertex 2.089999999999999 0.31000000000000005 0.4
  endloop
endfacet
facet normal 1.0 0.0 0.0
  outer loop
    vertex 1.5100000000000002 0.9 1.602965359409096e-31
    vertex 1.5100000000000002 0.31 0.4
    vertex 1.5100000000000002 0.31 1.602965359409096e-31
  endloop
endfacet
facet normal 1.0 0.0 0.0
  outer loop
    vertex 1.5100000000000002 0.31 0.4
    vertex 1.5100000000000002 0.9 1.602965359409096e-31
    vertex 1.5100000000000002 0.9 0.4
  endloop
endfacet
facet normal -1.0 0.0 0.0
  outer loop
    vertex 2.089999999999999 1.5000000000000004 0.4
    vertex 2.089999999999999 0.31000000000000005 1.602965359409096e-31
    vertex 2.089999999999999 0.31000000000000005 0.4
  endloop
endfacet
facet normal -1.0 0.0 0.0
  outer loop
    vertex 2.089999999999999 0.31000000000000005 1.602965359409096e-31
    vertex 2.089999999999999 1.5000000000000004 0.4
    vertex 2.089999999999999 1.5000000000000004 1.602965359409096e-31
  endloop
endfacet
facet normal -1.0 0.0 0.0
  outer loop
    vertex 1.5000000000000004 0.9 0.4
    vertex 1.5000000000000004 0.3 1.602965359409096e-31
    vertex 1.5000000000000004 0.3 0.4
  endloop
endfacet
facet normal -1.0 0.0 0.0
  outer loop
    vertex 1.5000000000000004 0.3 1.602965359409096e-31
    vertex 1.5000000000000004 0.9 0.4
    vertex 1.5000000000000004 0.9 1.602965359409096e-31
  endloop
endfacet
facet normal -1.0 0.0 0.0
  outer loop
    vertex 2.089999999999999 2.09 0.4
    vertex 2.089999999999999 1.5100000000000002 1.602965359409096e-31
    vertex 2.089999999999999 1.5100000000000002 0.4
  endloop
endfacet
facet normal -1.0 0.0 0.0
  outer loop
    vertex 2.089999999999999 1.5100000000000002 1.602965359409096e-31
    vertex 2.089999999999999 2.09 0.4
    vertex 2.089999999999999 2.09 1.602965359409096e-31
  endloop
endfacet
facet normal -0.0 1.0 0.0
  outer loop
    vertex 1.49 1.5100000000000002 0.4
    vertex 2.089999999999999 1.5100000000000002 1.602965359409096e-31
    vertex 1.49 1.5100000000000002 1.602965359409096e-31
  endloop
endfacet
facet normal -0.0 1.0 0.0
  outer loop
    vertex 2.089999999999999 1.5100000000000002 1.602965359409096e-31
    vertex 1.49 1.5100000000000002 0.4
    vertex 2.089999999999999 1.5100000000000002 0.4
  endloop
endfacet
facet normal 1.5294733464666598e-16 -1.0 0.0
  outer loop
    vertex 2.089999999999999 0.3000000000000001 0.4
    vertex 1.5000000000000004 0.3 1.602965359409096e-31
    vertex 2.089999999999999 0.3000000000000001 1.602965359409096e-31
  endloop
endfacet
facet normal 1.5294733464666598e-16 -1.0 0.0
  outer loop
    vertex 1.5000000000000004 0.3 1.602965359409096e-31
    vertex 2.089999999999999 0.3000000000000001 0.4
    vertex 1.5000000000000004 0.3 0.4
  endloop
endfacet
facet normal 3.033241258538916e-16 -1.0 0.0
  outer loop
    vertex 2.089999999999999 2.09 0.4
    vertex -0.2900000000000001 2.089999999999999 1.602965359409096e-31
    vertex 2.089999999999999 2.09 1.602965359409096e-31
  endloop
endfacet
facet normal 3.033241258538916e-16 -1.0 0.0
  outer loop
    vertex -0.2900000000000001 2.089999999999999 1.602965359409096e-31
    vertex 2.089999999999999 2.09 0.4
    vertex -0.2900000000000001 2.089999999999999 0.4
  endloop
endfacet
facet normal -0.0 1.0 0.0
  outer loop
    vertex 1.5000000000000004 0.9 0.4
    vertex 1.5100000000000002 0.9 1.602965359409096e-31
    vertex 1.5000000000000004 0.9 1.602965359409096e-31
  endloop
endfacet
facet normal -0.0 1.0 0.0
  outer loop
    vertex 1.5100000000000002 0.9 1.602965359409096e-31
    vertex 1.5000000000000004 0.9 0.4
    vertex 1.5100000000000002 0.9 0.4
  endloop
endfacet
facet normal -0.0 -1.0 -0.0
  outer loop
    vertex 2.089999999999999 1.5000000000000004 0.4
    vertex 1.49 1.5000000000000004 1.602965359409096e-31
    vertex 2.089999999999999 1.5000000000000004 1.602965359409096e-31
  endloop
endfacet
facet normal -0.0 -1.0 -0.0
  outer loop
    vertex 1.49 1.5000000000000004 1.602965359409096e-31
    vertex 2.089999999999999 1.5000000000000004 0.4
    vertex 1.49 1.5000000000000004 0.4
  endloop
endfacet
facet normal -1.0 0.0 0.0
  outer loop
    vertex 1.49 1.5100000000000002 0.4
    vertex 1.49 1.5000000000000004 1.602965359409096e-31
    vertex 1.49 1.5000000000000004 0.4
  endloop
endfacet
facet normal -1.0 0.0 0.0
  outer loop
    vertex 1.49 1.5000000000000004 1.602965359409096e-31
    vertex 1.49 1.5100000000000002 0.4
    vertex 1.49 1.5100000000000002 1.602965359409096e-31
  endloop
endfacet
facet normal -0.0 -1.0 -0.0
  outer loop
    vertex 2.0999999999999996 -0.29999999999999993 0.4
    vertex -0.29999999999999966 -0.29999999999999993 1.602965359409096e-31
    vertex 2.0999999999999996 -0.29999999999999993 1.602965359409096e-31
  endloop
endfacet
facet normal -0.0 -1.0 -0.0
  outer loop
    vertex -0.29999999999999966 -0.29999999999999993 1.602965359409096e-31
    vertex 2.0999999999999996 -0.29999999999999993 0.4
    vertex -0.29999999999999966 -0.29999999999999993 0.4
  endloop
endfacet
facet normal -1.0 0.0 0.0
  outer loop
    vertex 0.9 1.5000000000000004 0.4
    vertex 0.9 0.8999999999999996 1.602965359409096e-31
    vertex 0.9 0.8999999999999996 0.4
  endloop
endfacet
facet normal -1.0 0.0 0.0
  outer loop
    vertex 0.9 0.8999999999999996 1.602965359409096e-31
    vertex 0.9 1.5000000000000004 0.4
    vertex 0.9 1.5000000000000004 1.602965359409096e-31
  endloop
endfacet
facet normal 1.0 2.0165123450621837e-16 0.0
  outer loop
    vertex -0.2900000000000001 1.5000000000000004 1.602965359409096e-31
    vertex -0.28999999999999976 -0.28999999999999954 0.4
    vertex -0.28999999999999976 -0.28999999999999954 1.602965359409096e-31
  endloop
endfacet
facet normal 1.0 2.0165123450621837e-16 0.0
  outer loop
    vertex -0.28999999999999976 -0.28999999999999954 0.4
    vertex -0.2900000000000001 1.5000000000000004 1.602965359409096e-31
    vertex -0.2900000000000001 1.5000000000000004 0.4
  endloop
endfacet
facet normal -0.0 1.0 0.0
  outer loop
    vertex 0.3100000000000003 -0.28999999999999954 0.4
    vertex 0.9 -0.28999999999999954 1.602965359409096e-31
    vertex 0.3100000000000003 -0.28999999999999954 1.602965359409096e-31
  endloop
endfacet
facet normal -0.0 1.0 0.0
  outer loop
    vertex 0.9 -0.28999999999999954 1.602965359409096e-31
    vertex 0.3100000000000003 -0.28999999999999954 0.4
    vertex 0.9 -0.28999999999999954 0.4
  endloop
endfacet
facet normal 1.0 0.0 0.0
  outer loop
    vertex 2.0999999999999996 2.0999999999999988 1.602965359409096e-31
    vertex 2.0999999999999996 -0.29999999999999993 0.4
    vertex 2.0999999999999996 -0.29999999999999993 1.602965359409096e-31
  endloop
endfacet
facet normal 1.0 0.0 0.0
  outer loop
    vertex 2.0999999999999996 -0.29999999999999993 0.4
    vertex 2.0999999999999996 2.0999999999999988 1.602965359409096e-31
    vertex 2.0999999999999996 2.0999999999999988 0.4
  endloop
endfacet
facet normal -1.0 0.0 0.0
  outer loop
    vertex 0.3 0.9099999999999999 0.4
    vertex 0.3 -0.28999999999999954 1.602965359409096e-31
    vertex 0.3 -0.28999999999999954 0.4
  endloop
endfacet
facet normal -1.0 0.0 0.0
  outer loop
    vertex 0.3 -0.28999999999999954 1.602965359409096e-31
    vertex 0.3 0.9099999999999999 0.4
    vertex 0.3 0.9099999999999999 1.602965359409096e-31
  endloop
endfacet
facet normal -1.0 0.0 0.0
  outer loop
    vertex 2.089999999999999 0.3000000000000001 0.4
    vertex 2.089999999999999 -0.28999999999999954 1.602965359409096e-31
    vertex 2.089999999999999 -0.28999999999999954 0.4
  endloop
endfacet
facet normal -1.0 0.0 0.0
  outer loop
    vertex 2.089999999999999 -0.28999999999999954 1.602965359409096e-31
    vertex 2.089999999999999 0.3000000000000001 0.4
    vertex 2.089999999999999 0.3000000000000001 1.602965359409096e-31
  endloop
endfacet
facet normal -0.0 1.0 0.0
  outer loop
    vertex -0.28999999999999976 -0.28999999999999954 0.4
    vertex 0.3 -0.28999999999999954 1.602965359409096e-31
    vertex -0.28999999999999976 -0.28999999999999954 1.602965359409096e-31
  endloop
endfacet
facet normal -0.0 1.0 0.0
  outer loop
    vertex 0.3 -0.28999999999999954 1.602965359409096e-31
    vertex -0.28999999999999976 -0.28999999999999954 0.4
    vertex 0.3 -0.28999999999999954 0.4
  endloop
endfacet
facet normal 1.0 0.0 0.0
  outer loop
    vertex 0.9099999999999999 1.5100000000000002 1.602965359409096e-31
    vertex 0.9099999999999999 0.8999999999999996 0.4
    vertex 0.9099999999999999 0.8999999999999996 1.602965359409096e-31
  endloop
endfacet
facet normal 1.0 0.0 0.0
  outer loop
    vertex 0.9099999999999999 0.8999999999999996 0.4
    vertex 0.9099999999999999 1.5100000000000002 1.602965359409096e-31
    vertex 0.9099999999999999 1.5100000000000002 0.4
  endloop
endfacet
facet normal -1.0 0.0 0.0
  outer loop
    vertex 0.9 0.31 0.4
    vertex 0.9 -0.28999999999999954 1.602965359409096e-31
    vertex 0.9 -0.28999999999999954 0.4
  endloop
endfacet
facet normal -1.0 0.0 0.0
  outer loop
    vertex 0.9 -0.28999999999999954 1.602965359409096e-31
    vertex 0.9 0.31 0.4
    vertex 0.9 0.31 1.602965359409096e-31
  endloop
endfacet
facet normal -1.0 0.0 0.0
  outer loop
    vertex -0.29999999999999966 2.0999999999999988 0.4
    vertex -0.29999999999999966 -0.29999999999999993 1.602965359409096e-31
    vertex -0.29999999999999966 -0.29999999999999993 0.4
  endloop
endfacet
facet normal -1.0 0.0 0.0
  outer loop
    vertex -0.29999999999999966 -0.29999999999999993 1.602965359409096e-31
    vertex -0.29999999999999966 2.0999999999999988 0.4
    vertex -0.29999999999999966 2.0999999999999988 1.602965359409096e-31
  endloop
endfacet
facet normal -0.0 1.0 0.0
  outer loop
    vertex 0.3 0.9099999999999999 0.4
    vertex 0.31000000000000033 0.9099999999999999 1.602965359409096e-31
    vertex 0.3 0.9099999999999999 1.602965359409096e-31
  endloop
endfacet
facet normal -0.0 1.0 0.0
  outer loop
    vertex 0.31000000000000033 0.9099999999999999 1.602965359409096e-31
    vertex 0.3 0.9099999999999999 0.4
    vertex 0.31000000000000033 0.9099999999999999 0.4
  endloop
endfacet
facet normal 1.0 0.0 0.0
  outer loop
    vertex 0.9099999999999999 0.3099999999999999 1.602965359409096e-31
    vertex 0.9099999999999999 -0.2899999999999999 0.4
    vertex 0.9099999999999999 -0.2899999999999999 1.602965359409096e-31
  endloop
endfacet
facet normal 1.0 0.0 0.0
  outer loop
    vertex 0.9099999999999999 -0.2899999999999999 0.4
    vertex 0.9099999999999999 0.3099999999999999 1.602965359409096e-31
    vertex 0.9099999999999999 0.3099999999999999 0.4
  endloop
endfacet
facet normal -0.0 -1.0 -0.0
  outer loop
    vertex 0.9099999999999999 0.8999999999999996 0.4
    vertex 0.9 0.8999999999999996 1.602965359409096e-31
    vertex 0.9099999999999999 0.8999999999999996 1.602965359409096e-31
  endloop
endfacet
facet normal -0.0 -1.0 -0.0
  outer loop
    vertex 0.9 0.8999999999999996 1.602965359409096e-31
    vertex 0.9099999999999999 0.8999999999999996 0.4
    vertex 0.9 0.8999999999999996 0.4
  endloop
endfacet
facet normal -0.0 -1.0 -0.0
  outer loop
    vertex 0.9 1.5000000000000004 0.4
    vertex -0.2900000000000001 1.5000000000000004 1.602965359409096e-31
    vertex 0.9 1.5000000000000004 1.602965359409096e-31
  endloop
endfacet
facet normal -0.0 -1.0 -0.0
  outer loop
    vertex -0.2900000000000001 1.5000000000000004 1.602965359409096e-31
    vertex 0.9 1.5000000000000004 0.4
    vertex -0.2900000000000001 1.5000000000000004 0.4
  endloop
endfacet
facet normal 1.0 0.0 0.0
  outer loop
    vertex -0.2900000000000001 2.089999999999999 1.602965359409096e-31
    vertex -0.2900000000000001 1.5100000000000002 0.4
    vertex -0.2900000000000001 1.5100000000000002 1.602965359409096e-31
  endloop
endfacet
facet normal 1.0 0.0 0.0
  outer loop
    vertex -0.2900000000000001 1.5100000000000002 0.4
    vertex -0.2900000000000001 2.089999999999999 1.602965359409096e-31
    vertex -0.2900000000000001 2.089999999999999 0.4
  endloop
endfacet
facet normal -3.0589466929333147e-16 1.0 0.0
  outer loop
    vertex 0.9099999999999999 -0.2899999999999999 0.4
    vertex 2.089999999999999 -0.28999999999999954 1.602965359409096e-31
    vertex 0.9099999999999999 -0.2899999999999999 1.602965359409096e-31
  endloop
endfacet
facet normal -3.0589466929333147e-16 1.0 0.0
  outer loop
    vertex 2.089999999999999 -0.28999999999999954 1.602965359409096e-31
    vertex 0.9099999999999999 -0.2899999999999999 0.4
    vertex 2.089999999999999 -0.28999999999999954 0.4
  endloop
endfacet
facet normal -0.0 1.0 0.0
  outer loop
    vertex -0.29999999999999966 2.0999999999999988 0.4
    vertex 2.0999999999999996 2.0999999999999988 1.602965359409096e-31
    vertex -0.29999999999999966 2.0999999999999988 1.602965359409096e-31
  endloop
endfacet
facet normal -0.0 1.0 0.0
  outer loop
    vertex 2.0999999999999996 2.0999999999999988 1.602965359409096e-31
    vertex -0.29999999999999966 2.0999999999999988 0.4
    vertex 2.0999999999999996 2.0999999999999988 0.4
  endloop
endfacet
facet normal -0.0 1.0 0.0
  outer loop
    vertex -0.2900000000000001 1.5100000000000002 0.4
    vertex 0.9099999999999999 1.5100000000000002 1.602965359409096e-31
    vertex -0.2900000000000001 1.5100000000000002 1.602965359409096e-31
  endloop
endfacet
facet normal -0.0 1.0 0.0
  outer loop
    vertex 0.9099999999999999 1.5100000000000002 1.602965359409096e-31
    vertex -0.2900000000000001 1.5100000000000002 0.4
    vertex 0.9099999999999999 1.5100000000000002 0.4
  endloop
endfacet
facet normal 9.02389274415337e-15 1.0 0.0
  outer loop
    vertex 0.9 0.31 0.4
    vertex 0.9099999999999999 0.3099999999999999 1.602965359409096e-31
    vertex 0.9 0.31 1.602965359409096e-31
  endloop
endfacet
facet normal 9.02389274415337e-15 1.0 0.0
  outer loop
    vertex 0.9099999999999999 0.3099999999999999 1.602965359409096e-31
    vertex 0.9 0.31 0.4
    vertex 0.9099999999999999 0.3099999999999999 0.4
  endloop
endfacet
facet normal 1.0 -7.519910620127731e-17 0.0
  outer loop
    vertex 0.31000000000000033 0.9099999999999999 1.602965359409096e-31
    vertex 0.3100000000000003 -0.28999999999999954 0.4
    vertex 0.3100000000000003 -0.28999999999999954 1.602965359409096e-31
  endloop
endfacet
facet normal 1.0 -7.519910620127731e-17 0.0
  outer loop
    vertex 0.3100000000000003 -0.28999999999999954 0.4
    vertex 0.31000000000000033 0.9099999999999999 1.602965359409096e-31
    vertex 0.31000000000000033 0.9099999999999999 0.4
  endloop
endfacet
endsolid maze
