solid course-wall
facet normal 0.0 0.0 -1.0
  outer loop
    vertex -0.010000000000000614 4.189999999999999 0.0
    vertex 0.0 4.179999999999998 0.0
    vertex -0.010000000000000614 -0.010000000000000614 0.0
  endloop
endfacet
facet normal 0.0 0.0 -1.0
  outer loop
    vertex 0.0 4.179999999999998 0.0
    vertex -0.010000000000000614 4.189999999999999 0.0
    vertex 4.1899999999999995 4.189999999999999 0.0
  endloop
endfacet
facet normal 0.0 0.0 -1.0
  outer loop
    vertex 0.0 4.179999999999998 0.0
    vertex 4.1899999999999995 4.189999999999999 0.0
    vertex 4.180000000000001 4.18 0.0
  endloop
endfacet
facet normal 0.0 0.0 -1.0
  outer loop
    vertex 4.180000000000001 4.18 0.0
    vertex 4.1899999999999995 4.189999999999999 0.0
    vertex 4.180000000000001 0.0 0.0
  endloop
endfacet
facet normal 0.0 0.0 -1.0
  outer loop
    vertex -0.010000000000000614 -0.010000000000000614 0.0
    vertex 0.0 0.0 0.0
    vertex 4.1899999999999995 -0.010000000000000614 0.0
  endloop
endfacet
facet normal 0.0 0.0 -1.0
  outer loop
    vertex 0.0 0.0 0.0
    vertex -0.010000000000000614 -0.010000000000000614 0.0
    vertex 0.0 4.179999999999998 0.0
  endloop
endfacet
facet normal 0.0 0.0 -1.0
  outer loop
    vertex 4.1899999999999995 -0.010000000000000614 0.0
    vertex 0.0 0.0 0.0
    vertex 4.180000000000001 0.0 0.0
  endloop
endfacet
facet normal 0.0 0.0 -1.0
  outer loop
    vertex 4.1899999999999995 -0.010000000000000614 0.0
    vertex 4.180000000000001 0.0 0.0
    vertex 4.1899999999999995 4.189999999999999 0.0
  endloop
endfacet
facet normal -0.0 -0.0 1.0
  outer loop
    vertex -0.010000000000000614 -0.010000000000000614 0.4
    vertex 0.0 0.0 0.4
    vertex -0.010000000000000614 4.189999999999999 0.4
  endloop
endfacet
facet normal -0.0 -0.0 1.0
  outer loop
    vertex 0.0 0.0 0.4
    vertex -0.010000000000000614 -0.010000000000000614 0.4
    vertex 4.1899999999999995 -0.010000000000000614 0.4
  endloop
endfacet
facet normal -0.0 -0.0 1.0
  outer loop
    vertex 0.0 0.0 0.4
    vertex 4.1899999999999995 -0.010000000000000614 0.4
    vertex 4.180000000000001 0.0 0.4
  endloop
endfacet
facet normal -0.0 -0.0 1.0
  outer loop
    vertex 4.180000000000001 0.0 0.4
    vertex 4.1899999999999995 -0.010000000000000614 0.4
    vertex 4.180000000000001 4.18 0.4
  endloop
endfacet
facet normal -0.0 -0.0 1.0
  outer loop
    vertex -0.010000000000000614 4.189999999999999 0.4
    vertex 0.0 4.179999999999998 0.4
    vertex 4.1899999999999995 4.189999999999999 0.4
  endloop
endfacet
facet normal -0.0 -0.0 1.0
  outer loop
    vertex 0.0 4.179999999999998 0.4
    vertex -0.010000000000000614 4.189999999999999 0.4
    vertex 0.0 0.0 0.4
  endloop
endfacet
facet normal -0.0 -0.0 1.0
  outer loop
    vertex 4.1899999999999995 4.189999999999999 0.4
    vertex 0.0 4.179999999999998 0.4
    vertex 4.180000000000001 4.18 0.4
  endloop
endfacet
facet normal -0.0 -0.0 1.0
  outer loop
    vertex 4.1899999999999995 4.189999999999999 0.4
    vertex 4.180000000000001 4.18 0.4
    vertex 4.1899999999999995 -0.010000000000000614 0.4
  endloop
endfacet
facet normal -0.0 1.0 -0.0
  outer loop
    vertex -0.010000000000000614 4.189999999999999 0.4
    vertex 4.1899999999999995 4.189999999999999 0.0
    vertex -0.010000000000000614 4.189999999999999 0.0
  endloop
endfacet
facet normal -0.0 1.0 -0.0
  outer loop
    vertex 4.1899999999999995 4.189999999999999 0.0
    vertex -0.010000000000000614 4.189999999999999 0.4
    vertex 4.1899999999999995 4.189999999999999 0.4
  endloop
endfacet
facet normal 1.0 -0.0 -0.0
  outer loop
    vertex 4.1899999999999995 4.189999999999999 0.0
    vertex 4.1899999999999995 -0.010000000000000614 0.4
    vertex 4.1899999999999995 -0.010000000000000614 0.0
  endloop
endfacet
facet normal 1.0 -0.0 -0.0
  outer loop
    vertex 4.1899999999999995 -0.010000000000000614 0.4
    vertex 4.1899999999999995 4.189999999999999 0.0
    vertex 4.1899999999999995 4.189999999999999 0.4
  endloop
endfacet
facet normal 0.0 -1.0 0.0
  outer loop
    vertex 4.1899999999999995 -0.010000000000000614 0.4
    vertex -0.010000000000000614 -0.010000000000000614 0.0
    vertex 4.1899999999999995 -0.010000000000000614 0.0
  endloop
endfacet
facet normal 0.0 -1.0 0.0
  outer loop
    vertex -0.010000000000000614 -0.010000000000000614 0.0
    vertex 4.1899999999999995 -0.010000000000000614 0.4
    vertex -0.010000000000000614 -0.010000000000000614 0.4
  endloop
endfacet
facet normal 1.0 -0.0 -0.0
  outer loop
    vertex 0.0 4.179999999999998 0.0
    vertex 0.0 0.0 0.4
    vertex 0.0 0.0 0.0
  endloop
endfacet
facet normal 1.0 -0.0 -0.0
  outer loop
    vertex 0.0 0.0 0.4
    vertex 0.0 4.179999999999998 0.0
    vertex 0.0 4.179999999999998 0.4
  endloop
endfacet
facet normal 3.4541216245562764e-16 -1.0 0.0
  outer loop
    vertex 4.180000000000001 4.18 0.4
    vertex 0.0 4.179999999999998 0.0
    vertex 4.180000000000001 4.18 0.0
  endloop
endfacet
facet normal 3.4541216245562764e-16 -1.0 0.0
  outer loop
    vertex 0.0 4.179999999999998 0.0
    vertex 4.180000000000001 4.18 0.4
    vertex 0.0 4.179999999999998 0.4
  endloop
endfacet
facet normal -1.0 0.0 0.0
  outer loop
    vertex 4.180000000000001 4.18 0.4
    vertex 4.180000000000001 0.0 0.0
    vertex 4.180000000000001 0.0 0.4
  endloop
endfacet
facet normal -1.0 0.0 0.0
  outer loop
    vertex 4.180000000000001 0.0 0.0
    vertex 4.180000000000001 4.18 0.4
    vertex 4.180000000000001 4.18 0.0
  endloop
endfacet
facet normal -1.0 0.0 0.0
  outer loop
    vertex -0.010000000000000614 4.189999999999999 0.4
    vertex -0.010000000000000614 -0.010000000000000614 0.0
    vertex -0.010000000000000614 -0.010000000000000614 0.4
  endloop
endfacet
facet normal -1.0 0.0 0.0
  outer loop
    vertex -0.010000000000000614 -0.010000000000000614 0.0
    vertex -0.010000000000000614 4.189999999999999 0.4
    vertex -0.010000000000000614 4.189999999999999 0.0
  endloop
endfacet
facet normal -0.0 1.0 -0.0
  outer loop
    vertex 0.0 0.0 0.4
    vertex 4.180000000000001 0.0 0.0
    vertex 0.0 0.0 0.0
  endloop
endfacet
facet normal -0.0 1.0 -0.0
  outer loop
    vertex 4.180000000000001 0.0 0.0
    vertex 0.0 0.0 0.4
    vertex 4.180000000000001 0.0 0.4
  endloop
endfacet
endsolid course-wall
